<?xml version="1.0" encoding="UTF-8"?>
<svg xmlns="http://www.w3.org/2000/svg" xmlns:xlink="http://www.w3.org/1999/xlink"
     width="1320" height="1350" viewBox="0 0 1320 1350" fill="white" font-family="Magnetik" font-weight="bold">
<defs>
</defs>
<rect x="0" y="0" width="1320" height="1350" />
<rect x="300" y="0" width="1020" height="100" fill="#bd80fa" rx="10" ry="10" />
<text x="330" y="70" font-size="50">Pracownia Młodych PM</text>
<rect x="300" y="110" width="1020" height="100" fill="#bd80fa" rx="10" ry="10" />
<text x="330" y="180" font-size="50">Miejsce Aktywności Mieszkańców MAM</text>
<rect x="300" y="220" width="100" height="180" fill="#bd80fa" rx="10" ry="10" />
<text x="0" y="0" font-size="35" transform="translate(350.0,310.0) rotate(-90)" text-anchor="middle" dominant-baseline="central">czwartek</text>
<rect x="410" y="220" width="100" height="180" fill="#bd80fa" rx="10" ry="10" />
<text x="0" y="0" font-size="35" transform="translate(435.0,310.0) rotate(-90)" text-anchor="middle" dominant-baseline="central">18:00</text>
<text x="0" y="0" font-size="35" transform="translate(485.0,310.0) rotate(-90)" text-anchor="middle" dominant-baseline="central">MAM</text>
<rect x="520" y="220" width="800" height="180" fill="#bd80fa" rx="10" ry="10" />
<text x="550" y="300" font-size="60"><tspan x="550" dy="0em">PROGRAMOWANIE</tspan><tspan x="550" dy="1em">W PYTHONIE</tspan></text>
<rect x="300" y="410" width="100" height="560" fill="#bd80fa" rx="10" ry="10" />
<text x="0" y="0" font-size="35" transform="translate(350.0,690.0) rotate(-90)" text-anchor="middle" dominant-baseline="central">piątek</text>
<rect x="410" y="410" width="100" height="180" fill="#bd80fa" rx="10" ry="10" />
<text x="0" y="0" font-size="35" transform="translate(435.0,500.0) rotate(-90)" text-anchor="middle" dominant-baseline="central">19:00</text>
<text x="0" y="0" font-size="35" transform="translate(485.0,500.0) rotate(-90)" text-anchor="middle" dominant-baseline="central">MAM</text>
<rect x="520" y="410" width="800" height="180" fill="#bd80fa" rx="10" ry="10" />
<text x="550" y="490" font-size="60"><tspan x="550" dy="0em">POGOTOWIE</tspan><tspan x="550" dy="1em">MATEMATYCZNE</tspan></text>
<rect x="410" y="600" width="100" height="180" fill="#bd80fa" rx="10" ry="10" />
<text x="0" y="0" font-size="35" transform="translate(435.0,690.0) rotate(-90)" text-anchor="middle" dominant-baseline="central">20:00</text>
<text x="0" y="0" font-size="35" transform="translate(485.0,690.0) rotate(-90)" text-anchor="middle" dominant-baseline="central">MAM</text>
<rect x="520" y="600" width="800" height="180" fill="#bd80fa" rx="10" ry="10" />
<text x="550" y="680" font-size="60"><tspan x="550" dy="0em">KONWERSACJE NIEMIECKIE </tspan><tspan x="550" dy="1em">NIECO ZAAWANSOWANE</tspan></text>
<rect x="410" y="790" width="100" height="180" fill="#bd80fa" rx="10" ry="10" />
<text x="0" y="0" font-size="35" transform="translate(435.0,880.0) rotate(-90)" text-anchor="middle" dominant-baseline="central">14:00</text>
<text x="0" y="0" font-size="35" transform="translate(485.0,880.0) rotate(-90)" text-anchor="middle" dominant-baseline="central">PM</text>
<rect x="520" y="790" width="800" height="180" fill="#bd80fa" rx="10" ry="10" />
<text x="550" y="870" font-size="60"><tspan x="550" dy="0em">KURS MATURALNY</tspan><tspan x="550" dy="1em">Z FILOZOFII</tspan></text>
<rect x="300" y="980" width="100" height="180" fill="#bd80fa" rx="10" ry="10" />
<text x="0" y="0" font-size="35" transform="translate(350.0,1070.0) rotate(-90)" text-anchor="middle" dominant-baseline="central">sobota</text>
<rect x="410" y="980" width="100" height="180" fill="#bd80fa" rx="10" ry="10" />
<text x="0" y="0" font-size="35" transform="translate(435.0,1070.0) rotate(-90)" text-anchor="middle" dominant-baseline="central">19:00</text>
<text x="0" y="0" font-size="35" transform="translate(485.0,1070.0) rotate(-90)" text-anchor="middle" dominant-baseline="central">MAM</text>
<rect x="520" y="980" width="800" height="180" fill="#bd80fa" rx="10" ry="10" />
<text x="550" y="1060" font-size="60"><tspan x="550" dy="0em">KURS MATURALNY</tspan><tspan x="550" dy="1em">Z MATEMATYKI</tspan></text>
<rect x="300" y="1170" width="100" height="180" fill="#bd80fa" rx="10" ry="10" />
<text x="0" y="0" font-size="35" transform="translate(350.0,1260.0) rotate(-90)" text-anchor="middle" dominant-baseline="central">niedziela</text>
<rect x="410" y="1170" width="100" height="180" fill="#bd80fa" rx="10" ry="10" />
<text x="0" y="0" font-size="35" transform="translate(435.0,1260.0) rotate(-90)" text-anchor="middle" dominant-baseline="central">19:00</text>
<text x="0" y="0" font-size="35" transform="translate(485.0,1260.0) rotate(-90)" text-anchor="middle" dominant-baseline="central">MAM</text>
<rect x="520" y="1170" width="800" height="180" fill="#bd80fa" rx="10" ry="10" />
<text x="550" y="1250" font-size="60"><tspan x="550" dy="0em">NIEMIECKI</tspan><tspan x="550" dy="1em">DLA POCZĄTKUJĄCYCH</tspan></text>
<text x="0" y="0" font-size="200" fill="#bd80fa" font-family="Cascadia Code" transform="translate(150.0,680.0) rotate(-90)" text-anchor="middle" dominant-baseline="central">APE KRAKÓW</text>
</svg>