<?xml version="1.0" encoding="UTF-8"?>
<svg xmlns="http://www.w3.org/2000/svg" xmlns:xlink="http://www.w3.org/1999/xlink"
     width="1330" height="1370" viewBox="0 0 1330 1370" fill="white" font-family="Magnetik" font-weight="bold">
<defs>
</defs>
<rect x="0" y="0" width="1330" height="1370" />
<rect x="300" y="10" width="100" height="180" fill="#bd80fa" rx="10" ry="10" />
<text x="0" y="0" font-size="35" transform="translate(350.0,100.0) rotate(-90)" text-anchor="middle" dominant-baseline="central">czwartek</text>
<rect x="410" y="10" width="100" height="180" fill="#bd80fa" rx="10" ry="10" />
<text x="0" y="0" font-size="35" transform="translate(435.0,100.0) rotate(-90)" text-anchor="middle" dominant-baseline="central">18:00</text>
<text x="0" y="0" font-size="35" transform="translate(485.0,100.0) rotate(-90)" text-anchor="middle" dominant-baseline="central">MAM</text>
<rect x="520" y="10" width="800" height="180" fill="#bd80fa" rx="10" ry="10" />
<text x="550" y="90" font-size="60"><tspan x="550" dy="0em">PROGRAMOWANIE</tspan><tspan x="550" dy="1em">W PYTHONIE</tspan></text>
<rect x="300" y="200" width="100" height="560" fill="#bd80fa" rx="10" ry="10" />
<text x="0" y="0" font-size="35" transform="translate(350.0,480.0) rotate(-90)" text-anchor="middle" dominant-baseline="central">piątek</text>
<rect x="410" y="200" width="100" height="180" fill="#bd80fa" rx="10" ry="10" />
<text x="0" y="0" font-size="35" transform="translate(435.0,290.0) rotate(-90)" text-anchor="middle" dominant-baseline="central">19:00</text>
<text x="0" y="0" font-size="35" transform="translate(485.0,290.0) rotate(-90)" text-anchor="middle" dominant-baseline="central">MAM</text>
<rect x="520" y="200" width="800" height="180" fill="#bd80fa" rx="10" ry="10" />
<text x="550" y="280" font-size="60"><tspan x="550" dy="0em">POGOTOWIE</tspan><tspan x="550" dy="1em">MATEMATYCZNE</tspan></text>
<rect x="410" y="390" width="100" height="180" fill="#bd80fa" rx="10" ry="10" />
<text x="0" y="0" font-size="35" transform="translate(435.0,480.0) rotate(-90)" text-anchor="middle" dominant-baseline="central">20:00</text>
<text x="0" y="0" font-size="35" transform="translate(485.0,480.0) rotate(-90)" text-anchor="middle" dominant-baseline="central">MAM</text>
<rect x="520" y="390" width="800" height="180" fill="#bd80fa" rx="10" ry="10" />
<text x="550" y="470" font-size="60"><tspan x="550" dy="0em">KONWERSACJE NIEMIECKIE </tspan><tspan x="550" dy="1em">NIECO ZAAWANSOWANE</tspan></text>
<rect x="410" y="580" width="100" height="180" fill="#bd80fa" rx="10" ry="10" />
<text x="0" y="0" font-size="35" transform="translate(435.0,670.0) rotate(-90)" text-anchor="middle" dominant-baseline="central">14:00</text>
<text x="0" y="0" font-size="35" transform="translate(485.0,670.0) rotate(-90)" text-anchor="middle" dominant-baseline="central">PM</text>
<rect x="520" y="580" width="800" height="180" fill="#bd80fa" rx="10" ry="10" />
<text x="550" y="660" font-size="60"><tspan x="550" dy="0em">KURS MATURALNY</tspan><tspan x="550" dy="1em">Z FILOZOFII</tspan></text>
<rect x="300" y="770" width="100" height="180" fill="#bd80fa" rx="10" ry="10" />
<text x="0" y="0" font-size="35" transform="translate(350.0,860.0) rotate(-90)" text-anchor="middle" dominant-baseline="central">sobota</text>
<rect x="410" y="770" width="100" height="180" fill="#bd80fa" rx="10" ry="10" />
<text x="0" y="0" font-size="35" transform="translate(435.0,860.0) rotate(-90)" text-anchor="middle" dominant-baseline="central">19:00</text>
<text x="0" y="0" font-size="35" transform="translate(485.0,860.0) rotate(-90)" text-anchor="middle" dominant-baseline="central">MAM</text>
<rect x="520" y="770" width="800" height="180" fill="#bd80fa" rx="10" ry="10" />
<text x="550" y="850" font-size="60"><tspan x="550" dy="0em">KURS MATURALNY</tspan><tspan x="550" dy="1em">Z MATEMATYKI</tspan></text>
<rect x="300" y="960" width="100" height="180" fill="#bd80fa" rx="10" ry="10" />
<text x="0" y="0" font-size="35" transform="translate(350.0,1050.0) rotate(-90)" text-anchor="middle" dominant-baseline="central">niedziela</text>
<rect x="410" y="960" width="100" height="180" fill="#bd80fa" rx="10" ry="10" />
<text x="0" y="0" font-size="35" transform="translate(435.0,1050.0) rotate(-90)" text-anchor="middle" dominant-baseline="central">19:00</text>
<text x="0" y="0" font-size="35" transform="translate(485.0,1050.0) rotate(-90)" text-anchor="middle" dominant-baseline="central">MAM</text>
<rect x="520" y="960" width="800" height="180" fill="#bd80fa" rx="10" ry="10" />
<text x="550" y="1040" font-size="60"><tspan x="550" dy="0em">NIEMIECKI</tspan><tspan x="550" dy="1em">DLA POCZĄTKUJĄCYCH</tspan></text>
<rect x="300" y="1150" width="1020" height="100" fill="#bd80fa" rx="10" ry="10" />
<text x="330" y="1230" font-size="80">PM</text>
<text x="570" y="1200" font-size="40">Pracownia Młodych</text>
<text x="570" y="1230" font-size="30">Krakusa 7</text>
<rect x="300" y="1260" width="1020" height="100" fill="#bd80fa" rx="10" ry="10" />
<text x="330" y="1340" font-size="80">MAM</text>
<text x="570" y="1310" font-size="40">Miejsce Aktywności Mieszkańców</text>
<text x="570" y="1340" font-size="30">Na Kozłówku 25</text>
<text x="0" y="0" font-size="200" fill="#bd80fa" font-family="Cascadia Code" transform="translate(150.0,685.0) rotate(-90)" text-anchor="middle" dominant-baseline="central">APE KRAKÓW</text>
</svg>